<?xml version="1.0" standalone="no"?>
<!DOCTYPE svg PUBLIC "-//W3C//DTD SVG 20010904//EN"
 "http://www.w3.org/TR/2001/REC-SVG-20010904/DTD/svg10.dtd">
<svg version="1.0" xmlns="http://www.w3.org/2000/svg"
 width="300.000000pt" height="300.000000pt" viewBox="0 0 300.000000 300.000000"
 preserveAspectRatio="xMidYMid meet">
<metadata>
Created by potrace 1.14, written by Peter Selinger 2001-2017
</metadata>
<g transform="translate(0.000000,300.000000) scale(0.100000,-0.100000)"
fill="#000000" stroke="none">
<path d="M1360 2879 c-271 -31 -570 -224 -570 -368 0 -12 -9 -21 -25 -25 -90
-23 -190 -199 -229 -406 -41 -215 -29 -356 43 -507 22 -45 38 -90 36 -100 -2
-10 -4 -45 -4 -78 l-2 -60 -25 50 c-29 57 -61 95 -81 95 -25 0 -13 -39 18 -61
38 -27 60 -76 88 -194 54 -233 51 -210 28 -213 -11 -2 -34 6 -51 19 l-31 22
24 -26 c17 -19 35 -27 56 -27 28 0 33 -4 39 -31 9 -46 87 -206 138 -286 70
-107 138 -183 286 -318 148 -137 227 -185 335 -207 75 -14 185 0 262 36 88 40
329 212 409 291 89 89 187 217 232 306 26 53 39 69 55 69 25 0 89 37 89 52 0
5 -7 2 -17 -7 -21 -22 -64 -38 -73 -28 -4 4 8 49 27 98 19 50 46 119 59 154
32 84 55 114 102 135 28 13 39 24 38 39 -2 38 -27 30 -82 -27 l-54 -56 0 38
c1 64 26 154 68 243 55 114 72 183 79 309 10 186 -27 376 -103 527 -72 144
-227 298 -394 391 -132 74 -338 133 -524 151 -122 12 -138 12 -246 0z m-419
-665 c99 -107 260 -201 423 -248 175 -51 539 -75 695 -46 69 12 256 16 313 5
32 -6 36 -11 42 -43 12 -75 6 -228 -10 -273 -11 -30 -19 -101 -25 -229 -14
-315 -57 -495 -145 -599 -69 -82 -149 -82 -243 0 -65 57 -100 69 -228 76 -62
3 -113 9 -113 13 0 4 7 13 15 20 19 16 30 76 18 103 -10 21 -11 21 -17 -9 -4
-17 -18 -42 -32 -55 -22 -21 -36 -24 -99 -24 -92 0 -127 21 -150 90 -7 19 -7
19 -16 -3 -9 -24 -2 -79 12 -88 25 -15 -3 -19 -129 -19 l-138 0 -61 -38 c-102
-62 -175 -51 -252 42 -84 100 -105 219 -103 561 2 281 3 288 82 541 37 117
105 249 128 249 5 0 19 -12 33 -26z m739 -1449 c47 -9 109 -21 138 -27 30 -5
52 -12 49 -14 -4 -4 -117 5 -312 26 -49 5 -157 10 -239 10 -95 0 -147 3 -140
10 23 23 375 20 504 -5z m-530 -72 c29 -57 109 -144 168 -185 23 -16 42 -26
42 -22 0 3 7 1 15 -6 8 -6 24 -13 37 -15 122 -15 150 -16 203 -5 33 7 73 23
91 36 17 13 33 21 37 18 8 -9 109 88 143 137 24 35 29 38 37 23 17 -31 1 -130
-31 -186 -35 -63 -78 -100 -92 -79 -4 8 -6 20 -3 27 9 25 -34 18 -87 -14 -145
-87 -277 -80 -412 22 -72 55 -82 54 -53 -5 l26 -50 -33 17 c-42 21 -95 71
-114 107 -25 47 -35 123 -23 177 6 28 14 50 17 50 4 0 18 -21 32 -47z m410 11
c63 -5 99 -12 109 -22 13 -13 -2 -14 -129 -9 -150 6 -243 22 -218 39 7 5 42 7
78 4 36 -3 108 -8 160 -12z m-66 -235 c6 -5 -4 -5 -24 1 -18 5 -35 12 -39 16
-9 10 53 -6 63 -17z m59 4 c-7 -2 -19 -2 -25 0 -7 3 -2 5 12 5 14 0 19 -2 13
-5z"/>
<path d="M1079 1919 c-85 -13 -165 -70 -203 -146 -35 -69 -14 -80 61 -33 26
17 70 37 97 45 65 19 199 19 251 -1 70 -27 89 -29 82 -10 -4 10 -7 22 -7 27 0
5 -16 27 -36 48 -51 57 -150 85 -245 70z"/>
<path d="M1915 1856 c-56 -26 -88 -57 -104 -98 -13 -33 1 -36 64 -13 54 19
170 19 231 -1 51 -17 126 -67 157 -104 42 -50 50 20 11 98 -47 94 -126 141
-239 142 -53 0 -82 -6 -120 -24z"/>
<path d="M982 1526 c-69 -23 -136 -75 -118 -93 3 -3 20 7 38 21 19 14 51 32
71 41 l38 16 -16 -32 c-9 -17 -17 -49 -18 -72 l-2 -41 135 -22 c74 -12 137
-20 139 -18 2 2 10 25 16 51 l12 48 34 -54 c18 -29 35 -48 37 -43 5 17 -24 64
-70 111 -79 81 -203 117 -296 87z m116 -52 c2 -11 -4 -26 -12 -33 -31 -26 -71
14 -45 45 17 21 53 14 57 -12z"/>
<path d="M1975 1460 c-28 -4 -64 -14 -81 -23 -45 -23 -132 -94 -144 -118 -21
-38 -3 -31 44 18 l46 48 0 -45 c1 -73 -1 -72 153 -64 l137 7 0 49 c0 27 -5 58
-10 69 -6 10 -7 19 -3 19 18 0 73 -41 94 -69 25 -33 39 -39 39 -17 0 26 -50
75 -103 100 -63 29 -105 36 -172 26z m-20 -60 c0 -20 -5 -25 -25 -25 -28 0
-41 32 -18 46 23 15 43 5 43 -21z"/>
</g>
</svg>
